<?xml version="1.0" standalone="no"?>
<!DOCTYPE svg PUBLIC "-//W3C//DTD SVG 20010904//EN"
 "http://www.w3.org/TR/2001/REC-SVG-20010904/DTD/svg10.dtd">
<svg version="1.0" xmlns="http://www.w3.org/2000/svg"
 width="215.000000pt" height="215.000000pt" viewBox="0 0 215.000000 215.000000"
 preserveAspectRatio="xMidYMid meet">
	<metadata>
		Created by potrace 1.10, written by Peter Selinger 2001-2011
	</metadata>
	<g transform="translate(0.000000,215.000000) scale(0.100000,-0.100000)"
	fill="#000000" stroke="none">
		<path d="M665 1564 c-221 -201 -401 -373 -403 -384 -2 -11 2 -20 10 -21 7 0
151 -1 320 -2 l308 -2 0 28 0 28 -270 -3 c-149 -2 -270 -1 -270 2 0 3 162 153
360 333 l360 327 360 -327 c198 -180 360 -330 360 -333 0 -3 -121 -4 -270 -2
l-270 3 0 -28 0 -28 308 2 c169 1 313 2 320 2 36 2 -1 49 -143 176 l-155 140
0 181 c0 157 -2 183 -16 188 -31 12 -181 7 -192 -7 -6 -7 -12 -45 -14 -85 l-3
-72 -137 125 c-75 69 -143 125 -150 124 -7 0 -193 -164 -413 -365z m875 99 c0
-73 -3 -133 -7 -133 -4 0 -31 23 -60 52 l-53 52 0 76 c0 42 3 80 7 84 4 3 31
6 60 5 l53 -2 0 -134z"/>
		<path d="M1034 1506 c-17 -8 -40 -26 -52 -41 -22 -27 -22 -35 -22 -348 l0
-319 -29 -33 c-16 -18 -37 -54 -47 -80 -15 -41 -16 -55 -6 -103 35 -168 228
-226 348 -106 79 78 82 196 8 283 l-34 39 0 320 c0 312 0 320 -22 347 -21 26
-74 55 -100 55 -7 -1 -27 -7 -44 -14z m99 -68 c9 -11 17 -31 17 -44 0 -21 -5
-24 -35 -24 -31 0 -35 -3 -35 -25 0 -22 4 -25 35 -25 32 0 35 -2 35 -30 0 -28
-3 -30 -35 -30 -31 0 -35 -3 -35 -25 0 -22 4 -25 35 -25 32 0 35 -2 35 -30 0
-28 -3 -30 -35 -30 -31 0 -35 -3 -35 -25 0 -22 4 -25 35 -25 l35 0 0 -166 0
-167 35 -34 c89 -87 56 -228 -63 -264 -155 -46 -264 150 -147 264 l35 34 0
322 c0 209 4 329 11 342 22 42 79 45 112 7z"/>
		<path d="M1054 1038 c-3 -5 -4 -79 -3 -165 3 -150 2 -156 -18 -164 -58 -21
-72 -112 -24 -160 63 -63 171 -20 171 68 0 43 -21 80 -52 92 -19 7 -20 17 -22
171 -1 163 -1 163 -24 165 -13 1 -25 -2 -28 -7z m65 -374 c12 -15 21 -35 21
-45 0 -25 -35 -59 -60 -59 -25 0 -60 34 -60 59 0 26 38 71 60 71 10 0 28 -12
39 -26z"/>
		<path d="M422 688 l3 -413 655 0 655 0 3 413 2 412 -25 0 -25 0 0 -390 0 -390
-610 0 -610 0 0 390 0 390 -25 0 -25 0 2 -412z"/>
	</g>
</svg>
